<?xml version="1.0" standalone="no"?>
<!DOCTYPE svg PUBLIC "-//W3C//DTD SVG 20010904//EN"
 "http://www.w3.org/TR/2001/REC-SVG-20010904/DTD/svg10.dtd">
<svg version="1.0" xmlns="http://www.w3.org/2000/svg"
 width="225.000000pt" height="225.000000pt" viewBox="0 0 225.000000 225.000000"
 preserveAspectRatio="xMidYMid meet">
<metadata>
Created by potrace 1.16, written by Peter Selinger 2001-2019
</metadata>
<g transform="translate(0.000000,225.000000) scale(0.100000,-0.100000)"
fill="#000000" stroke="none">
<path d="M822 2184 c-37 -26 -24 -54 46 -100 l63 -41 -88 -28 c-269 -84 -474
-259 -593 -506 -103 -216 -116 -457 -36 -692 88 -256 293 -470 548 -571 167
-66 238 -68 238 -6 0 35 4 33 -147 80 -107 33 -209 89 -296 163 -118 98 -227
274 -268 432 -28 107 -30 299 -5 400 61 236 227 440 451 553 66 33 203 78 211
69 3 -3 -10 -31 -30 -61 -39 -61 -44 -87 -22 -106 34 -27 59 -7 139 109 107
156 107 153 -48 248 -66 40 -125 72 -130 73 -6 0 -21 -7 -33 -16z"/>
<path d="M1266 2034 c-19 -19 -21 -58 -3 -71 6 -5 48 -19 92 -32 307 -86 539
-324 611 -627 20 -85 22 -266 5 -349 -54 -250 -213 -458 -442 -579 -87 -46
-194 -84 -205 -73 -3 3 5 21 19 39 35 46 41 73 22 92 -39 38 -65 20 -141 -100
-50 -78 -65 -110 -60 -127 4 -17 39 -44 116 -91 115 -70 139 -75 161 -35 16
31 2 55 -47 84 -25 15 -44 28 -42 30 2 2 39 15 83 30 312 104 538 346 626 671
31 113 31 335 0 449 -89 332 -338 582 -677 680 -102 30 -98 29 -118 9z"/>
<path d="M1050 1625 c-41 -14 -163 -50 -270 -82 -107 -31 -201 -61 -207 -66
-10 -7 -13 -93 -13 -368 0 -198 2 -359 3 -359 2 0 131 -38 287 -85 l283 -85
136 41 c75 22 200 60 279 83 78 23 147 47 153 53 8 8 9 111 4 367 l-8 355 -31
10 c-71 23 -535 161 -538 161 -2 -1 -37 -12 -78 -25z m305 -95 c116 -35 213
-66 218 -70 4 -3 -23 -14 -60 -24 l-68 -17 -210 66 c-115 36 -217 68 -225 72
-15 6 106 43 125 38 6 -1 105 -31 220 -65z m-135 -141 l75 -22 -84 -27 -84
-26 -211 63 c-116 35 -218 66 -226 69 -9 4 17 17 64 33 l80 27 155 -47 c86
-26 190 -57 231 -70z m420 -267 l0 -319 -122 -38 c-68 -20 -178 -54 -245 -75
l-123 -37 0 318 0 318 88 26 c48 15 93 28 100 30 9 3 12 -18 12 -83 1 -65 3
-83 11 -69 7 12 17 16 30 12 14 -5 19 -2 19 11 0 13 3 14 15 4 12 -10 15 0 17
76 l3 87 90 27 c50 16 93 29 98 29 4 1 7 -142 7 -317z m-775 235 l240 -73 3
-317 c1 -174 -1 -317 -5 -317 -5 0 -116 33 -248 73 l-240 73 -3 317 c-1 174 1
317 5 317 5 0 116 -33 248 -73z"/>
<path d="M929 1119 c-44 -44 -4 -137 68 -158 41 -12 54 13 23 43 -14 14 -20
16 -20 6 0 -9 -8 -6 -25 10 -30 28 -33 65 -6 79 28 15 73 -22 69 -58 -5 -48
25 -70 36 -27 7 30 -8 73 -36 104 -28 29 -80 30 -109 1z"/>
</g>
</svg>
