<svg xmlns="http://www.w3.org/2000/svg" xmlns:xlink="http://www.w3.org/1999/xlink" viewBox="0 0 430.8 190.9"><path d="M117.3 29.6c-.7-.7-1.5-1.3-2.4-1.8-1.6-.7-4.3-.3-5.5 3.5 0 0 4.7-4.8 6.1 1.7 0 0-.7 10-11.2 8.5s-8.5-14.3-4.9-15.1 4.4 3.2 4.4 3.2 2.9-2.7.5-5.6c-2.1-2.5-5.6-.5-5.6-.5s1.5-4.9-2.2-6.8c-2.2 1.2-3.6 3.5-3.6 6 0 0-1.9-2.1-3.8-2.1S85 22.1 84.8 26c0 0 3.2-3.9 6.6.2 3 3.6-.2 12.3-8.1 12.4-7.9-.1-11.1-8.8-8.1-12.4 3.3-4 6.5-.2 6.5-.2-.3-3.9-2.3-5.4-4.3-5.4s-3.8 2.1-3.8 2.1c0-2.5-1.4-4.8-3.6-6-3.7 1.9-2.2 6.8-2.2 6.8s-3.5-2-5.6.5c-2.4 2.9.5 5.6.5 5.6s.7-3.9 4.4-3.2 5.6 13.6-4.9 15.1S51.1 33 51.1 33c1.4-6.5 6.1-1.7 6.1-1.7-1.2-3.8-3.9-4.2-5.5-3.5-.9.4-1.7 1-2.4 1.8-2.9-3.2-6-1.4-6-1.4L57.9 52c7.4-5.1 23.5-5.5 25.4-5.6s17.5-.2 25.4 5.6l14.6-23.8s-3-1.7-6 1.4zM84.9 12.4c1.6 1.5 4.5 1.8 4.5 1.8s-3.1.4-4.5 1.8-1.8 4.5-1.8 4.5-.4-3.1-1.8-4.5-4.5-1.8-4.5-1.8a7.47 7.47 0 0 0 4.5-1.8c1.1-1.3 1.7-2.9 1.8-4.5 0 0 .2 3 1.8 4.5zM113.7 116l-4.4-10.5-13.6-1.1 4.8 11.5c1.7 4.1 2.6 7.1 2.6 9 0 1.4-.7 2.8-1.8 3.6-1.2 1-3.6 1.6-7.1 1.7v2.4h34.6v-2.4c-3.6-.2-6.4-1.2-8.4-2.9s-4.2-5.5-6.7-11.3zm-60.5 8.8c0-1.7.7-4.2 2.2-7.6l5.4-12.4-6.4.6-4.2 9.8c-2.7 6.3-5.1 10.5-7.3 12.6-1.1 1-3.5 1.9-7.1 2.5v2.4h27.6v-2.4c-4.2-.3-7-1-8.2-2-1.2-.8-1.9-2.1-2-3.5zm52-29.3L86.5 50.8c-2.4-.1-4.2-.1-4.8-.1s-2 0-4 .2L58.6 95.5c-25.8 3.4-37 11.7-37 11.7s21.6-7.7 59.2-7.7 63.9 7.7 63.9 7.7-13.1-8.3-39.5-11.7h0zM81.7 94c-6.1 0-11.6.3-16.7.7l13.6-31.5 13 31.1a154.13 154.13 0 0 0-9.9-.3h0z" fill="#010101"/><path d="M78.1 86.5L-18 34l94.8 55-93.6 56.9 95-54.5 2.6 109.5.2-109.6 96.1 52.6-94.7-55 93.5-57-95 54.6L78.3-23z" fill="#fff"/><g fill="#010101"><use xlink:href="#B"/><use xlink:href="#B" x="32"/><path d="M260.8 131.6l-17.6 1.2-.8-.8v-6.8h-.3l-2.9 2.9c-1.1 1.1-2.4 2-3.8 2.8-1.5.9-3.1 1.7-4.7 2.2-2.1.6-4.3.8-6.5.8-4.8 0-8.4-1.6-10.9-4.7s-3.7-7.6-3.7-13.5V90.1c0-1.1-.2-2.3-.7-3.3-1-1.7-2.7-2.9-4.6-3.3-1-.2-2.1-.3-3.1-.4v-3.6l17.9-1.3.8.8v37.3c0 3.9.9 6.8 2.6 8.8a7.59 7.59 0 0 0 6.3 2.9 15.95 15.95 0 0 0 5.3-.9c1.4-.5 2.7-1.3 3.9-2.2.9-.7 1.8-1.5 2.6-2.4.7-.7 1.2-1.5 1.7-2.4V89.7c0-1.1-.2-2.2-.8-3.2-.5-.9-1.2-1.7-2.1-2.4-.9-.5-1.9-.8-2.9-.8l-4.3-.3v-3.6l19.6-1.3.8.8v42.7c0 1.1.2 2.2.8 3.2.5.9 1.3 1.7 2.1 2.2.7.4 1.5.7 2.4.8 1 .1 2 .2 3 .2v3.6zm47.7-45.8c0 1.7-.4 3.5-1.4 4.9-.9 1.4-2.5 2.3-4.2 2.2-1.7.1-3.4-.5-4.7-1.6-1-.9-1.6-2.2-1.6-3.5 0-.7.1-1.5.2-2.2s.2-1.3.4-2c-2.1.1-4.2.9-6 2.1-2.4 1.5-4.4 3.5-5.8 5.9v31.3c0 1.1.2 2.2.7 3.1.5.8 1.4 1.5 2.3 1.8 1.1.4 2.3.7 3.5.8l3.7.4v3.6h-28.3V129l2.6-.2 2.3-.4c.9-.3 1.7-.9 2.3-1.7.5-1 .8-2.1.7-3.2V90.3c0-1.2-.3-2.3-.8-3.3-.5-1.1-1.2-2-2.2-2.7-.8-.5-1.6-.8-2.5-1-1-.2-2-.3-3-.4v-3.6l17.9-1.2.8.8v7.6h.3c2-2.7 4.6-5 7.5-6.7 2.3-1.4 4.9-2.1 7.6-2.2 2.1-.1 4.1.7 5.6 2.2 1.5 1.6 2.3 3.8 2.1 6zm52.4 34.2c-2.1 4.1-5.2 7.7-9.1 10.3-3.8 2.6-8.4 3.9-13 3.8-3.9.1-7.8-.7-11.4-2.3-3.1-1.4-5.8-3.6-8-6.2-2.2-2.7-3.8-5.8-4.7-9.2-1.1-3.6-1.6-7.3-1.6-11.1 0-3.5.6-7 1.7-10.3s2.7-6.4 4.9-9.1c2.1-2.6 4.7-4.7 7.7-6.2 3.2-1.6 6.7-2.4 10.3-2.4 3.5-.1 6.9.6 10.1 1.9 2.6 1.1 5 2.9 6.8 5.1 1.7 2.1 3 4.6 3.7 7.2.8 2.9 1.3 6 1.2 9v3.6H324c0 3.2.3 6.5 1 9.6.6 2.7 1.7 5.3 3.2 7.6 1.4 2.1 3.3 3.8 5.6 5 2.5 1.3 5.3 1.9 8.2 1.8 3 .1 5.9-.7 8.4-2.3 2.3-1.5 4.6-4.2 6.8-8.2l3.7 2.4zm-12.1-20.5c0-2.2-.2-4.4-.5-6.5-.3-2-.8-4-1.7-5.8-.8-1.6-2-3-3.4-4.1-1.7-1.1-3.6-1.7-5.6-1.6-3.8 0-7.3 1.7-9.5 4.8-2.5 3.2-3.9 7.6-4.1 13.2h24.8zm60.9 33.1h-43.5v-2.9l30.5-46.4h-7.5l-7.4.2c-1.7.1-3.3.4-4.9 1-1 .4-2 1.5-2.9 3.4-1 2.4-1.8 4.9-2.3 7.4h-3.3V78.8h41.1V81l-30.9 47.1 4.3.1h5.1l4.5-.1 6.1-.3c1.3 0 2.5-.5 3.3-1.5.8-.9 1.3-2 1.7-3.1l1.4-4.4 1.5-5.4h3.3l-.1 19.2z"/></g><path d="M39.7 153.1l-.2 1c-.3 0-.7.1-1.2.1l-1.1.2c-.4.1-.7.3-.9.6s-.3.6-.4.9l-3.6 15.3v.4c0 .2 0 .4.1.6s.3.3.5.4c.1.1.5.1 1 .2s.9.1 1.1.2l-.2 1h-9.4l.2-1c.3 0 .7 0 1.2-.1.5 0 .9-.1 1.1-.2.4-.1.7-.3.9-.6.2-.2.3-.5.4-.9l3.5-15.3v-.6c0-.2 0-.4-.1-.5s-.3-.3-.5-.4c-.3-.1-.6-.2-1.1-.3l-1-.2.2-1h9.5zm16.6 19.3l-.2.9c-.9.4-1.6.6-2.1.8s-1 .2-1.5.2c-.8 0-1.4-.2-1.8-.6s-.6-.9-.6-1.5c0-.2 0-.5.1-.7 0-.3.1-.6.2-.9l1.5-5.5.3-1.2c.1-.3.1-.6.1-.8 0-.7-.2-1.2-.5-1.6s-.8-.6-1.4-.6-1.3.2-2 .6-1.4 1-2.1 1.7L43.8 174H41l2.2-9.6c0-.2.1-.6.2-1s.1-.8.1-1.1c0-.6-.1-.9-.3-1.1s-.6-.3-1.1-.3c-.2 0-.5 0-.8.1s-.6.1-.8.2l.2-.9 2-.8c.6-.2 1.1-.3 1.5-.3.8 0 1.3.2 1.7.6.3.4.5 1 .5 1.8h.1c1.1-.9 2-1.5 2.8-1.9s1.7-.6 2.7-.6c.9 0 1.7.3 2.2.8s.8 1.3.8 2.1c0 .2 0 .5-.1.9-.1.5-.1.9-.3 1.3l-1.2 4.7c-.1.3-.2.7-.3 1.1s-.1.7-.1 1c0 .6.1.9.4 1.1.2.2.6.3 1.2.3.2 0 .5 0 .8-.1.5.2.7.1.9.1zm6.9 2c-.9 0-1.6-.2-2.1-.6-.4-.4-.6-.9-.6-1.6v-.6c0-.2.1-.4.1-.7l2.3-9.9h-2.6l.3-1.3h2.7l1-4.3H67l-1 4.3h4.1l-.3 1.3h-4.1l-1.9 8.1c-.1.4-.2.7-.2 1.1s-.1.6-.1.9c0 .5.1.9.4 1.2s.8.4 1.5.4c.3 0 .6 0 1.1-.1s.8-.1 1.1-.2l-.3 1.1c-.7.3-1.3.5-1.9.7-.7.1-1.4.2-2.2.2z"/><use xlink:href="#C"/><path d="M100.5 161.6c0 .3 0 .6-.1.9l-.3.8c-.2.3-.4.5-.6.6s-.5.2-.9.2c-.5 0-.9-.1-1.2-.4s-.4-.6-.4-.9.1-.6.2-1 .3-.8.5-1.1c-.1 0-.3 0-.6.1s-.6.2-1 .4-.8.5-1.3.8c-.5.4-1 .9-1.6 1.5l-2.4 10.6H88l2.2-9.6c0-.2.1-.6.2-1.1s.1-.8.1-1c0-.6-.1-.9-.3-1.1s-.6-.3-1.1-.3c-.2 0-.5 0-.8.1s-.6.1-.8.2l.2-.9 2-.8c.6-.2 1.1-.3 1.5-.3.8 0 1.3.2 1.7.6.3.4.5 1.1.5 1.9h.1l2.7-2.1c.6-.4 1.2-.6 1.9-.6.3 0 .6 0 .9.1s.5.2.8.4c.2.2.4.4.5.7.2.4.2.8.2 1.3zm18.3 10.8l-.2.9c-.9.4-1.6.6-2.1.8s-1 .2-1.5.2c-.8 0-1.4-.2-1.8-.6s-.6-.9-.6-1.5c0-.2 0-.5.1-.7 0-.3.1-.6.2-.9l1.5-5.5.3-1.2c.1-.3.1-.6.1-.8 0-.7-.2-1.2-.5-1.6s-.8-.6-1.4-.6-1.3.2-2 .6-1.4 1-2.1 1.7l-2.5 10.8h-2.8l2.2-9.6c0-.2.1-.6.2-1s.1-.8.1-1.1c0-.6-.1-.9-.3-1.1s-.6-.3-1.1-.3c-.2 0-.5 0-.8.1s-.6.1-.8.2l.2-.9 2-.8c.6-.2 1.1-.3 1.5-.3.8 0 1.3.2 1.7.6.3.4.5 1 .5 1.8h.1c1.1-.9 2-1.5 2.8-1.9s1.7-.6 2.7-.6c.9 0 1.7.3 2.2.8s.8 1.3.8 2.1c0 .2 0 .5-.1.9-.1.5-.1.9-.3 1.3l-1.2 4.7c-.1.3-.2.7-.3 1.1s-.1.7-.1 1c0 .6.1.9.4 1.1.2.2.6.3 1.2.3.2 0 .5 0 .8-.1.5.2.8.1.9.1zm16.1-10.1a3.94 3.94 0 0 1-1 2.7c-.7.7-1.6 1.3-2.9 1.8l-2.8.8a25.15 25.15 0 0 1-3.1.5c0 1.6.3 2.7.9 3.6.6.8 1.4 1.2 2.5 1.2 1 0 1.9-.2 2.6-.7s1.5-1.2 2.2-2.2l.8.6c-.8 1.2-1.8 2.2-2.9 2.9-1.2.7-2.4 1.1-3.7 1.1-1.7 0-3.1-.5-4-1.5s-1.4-2.4-1.4-4.1c0-1.2.2-2.4.6-3.6.4-1.1 1-2.2 1.7-3.1s1.6-1.7 2.7-2.2c1.1-.6 2.2-.8 3.5-.8 1.4 0 2.5.3 3.1.9.8.4 1.2 1.2 1.2 2.1zm-2.7-.4c0-.4-.1-.7-.2-.9s-.2-.4-.4-.5-.4-.2-.6-.2h-.6c-1.2 0-2.3.6-3.3 1.9s-1.6 2.9-1.9 4.8l2.3-.4c.9-.2 1.6-.4 2.2-.7.8-.4 1.4-1 1.8-1.6.5-.7.7-1.5.7-2.4zm9.2 12.5c-.9 0-1.6-.2-2.1-.6-.4-.4-.6-.9-.6-1.6v-.6c0-.2.1-.4.1-.7l2.3-9.9h-2.6l.3-1.3h2.7l1-4.3h2.7l-1 4.3h4.1l-.3 1.3h-4l-1.9 8.1c-.1.4-.2.7-.2 1.1-.1.3-.1.6-.1.9 0 .5.1.9.4 1.2s.8.4 1.5.4c.3 0 .6 0 1.1-.1s.8-.1 1.1-.2l-.3 1.1c-.7.3-1.3.5-1.9.7-.7.1-1.4.2-2.3.2zm15.2-21.6c0 .4-.3 1.2-.8 2.5l-1.8 4.5h-.9l.1-4.2.1-2.4c.1-.4.3-.8.6-1.2.4-.3.8-.5 1.3-.5s.8.1 1 .4c.3.2.4.5.4.9zm5.7 21.7c-1.5 0-2.7-.3-3.6-.8-1-.5-1.5-1.2-1.5-2 0-.4.1-.8.4-1.1s.6-.5 1-.5a1.69 1.69 0 0 1 1 .3l.6.6c.1.3.3.6.4.9.1.4.2.6.3.9.1.2.4.3.6.5.3.1.6.2 1.1.2 1.1 0 1.9-.3 2.4-.8s.8-1.3.8-2.2c0-.7-.3-1.2-.8-1.6s-1.3-.8-2.3-1.1c-.4-.1-.8-.3-1.3-.5s-.9-.5-1.2-.8c-.4-.3-.6-.7-.9-1.1-.2-.4-.3-.9-.3-1.5 0-1.3.6-2.4 1.7-3.3s2.5-1.4 4.2-1.4c.4 0 .8 0 1.2.1.4 0 .9.1 1.5.3.5.2.9.4 1.2.7s.5.7.5 1.2c0 .4-.1.8-.4 1.1s-.6.5-1.1.5c-.4 0-.7-.1-.9-.2l-.6-.6c-.2-.3-.3-.6-.4-.9l-.3-.9c-.2-.1-.4-.1-.5-.2s-.3 0-.6 0c-1 0-1.7.3-2.2.8s-.7 1.1-.7 1.8.2 1.2.7 1.6c.4.3 1.2.7 2.2 1.1 1.3.5 2.3 1 2.9 1.7s.9 1.4.9 2.3c0 1.5-.6 2.7-1.7 3.7-1.1.7-2.5 1.2-4.3 1.2zm38.7-21.4l-1.2 5.2h-1.1a5.38 5.38 0 0 0-.7-2.7c-.4-.8-.9-1.2-1.5-1.3-.3 0-.7-.1-1.1-.1h-5l-2 8.5h2.4c.6 0 1.1-.1 1.6-.2s.9-.4 1.4-.8c.2-.2.5-.5.8-1s.5-1 .7-1.5h1.1l-1.9 8.2h-1.1v-.9c0-.3 0-.6-.1-.9 0-.4-.1-.6-.2-.8-.3-.4-.6-.7-1-.8s-.9-.2-1.5-.2h-2.4l-1.7 7.3v.4c0 .2 0 .4.1.6s.2.3.5.4c.2.1.5.2.9.3s.8.1 1.1.2l-.2 1h-9.1l.2-1c.3 0 .7-.1 1.2-.1s.8-.1 1-.2c.3-.1.6-.3.8-.6a2.47 2.47 0 0 0 .4-.9l3.5-15.3c0-.1 0-.2.1-.3v-.3c0-.2 0-.4-.1-.5s-.2-.3-.5-.4c-.2-.1-.5-.2-1-.3-.4-.1-.8-.2-1.1-.2l.2-1H201zm9.2 19h-.1c-.2.2-.5.4-.8.7s-.7.5-1.1.8c-.4.2-.8.5-1.3.6-.5.2-.9.3-1.5.3-1.4 0-2.5-.5-3.4-1.5-.8-1-1.2-2.4-1.2-4.2 0-1.2.2-2.4.7-3.6s1.1-2.2 1.9-3.1 1.7-1.6 2.7-2.1 2.1-.8 3.2-.8c.7 0 1.4.1 2 .3a11.64 11.64 0 0 1 1.5.6l2.7-.7.2.2-2.2 9.5c-.1.3-.2.7-.2 1.1-.1.4-.1.8-.1 1 0 .6.1.9.4 1.1.2.2.6.3 1.2.3.2 0 .5 0 .8-.1s.6-.1.8-.2l-.2.9-2 .8c-.4.2-1 .2-1.6.2-.7 0-1.3-.2-1.7-.6-.5-.3-.7-.8-.7-1.5zm2.1-9.3c0-.3 0-.6-.1-.9s-.2-.6-.4-.8-.5-.4-.8-.6a4.44 4.44 0 0 0-1.3-.2c-.7 0-1.4.2-2.1.7s-1.3 1.1-1.8 1.9c-.5.7-.9 1.7-1.3 2.7-.3 1.1-.5 2.1-.5 3.2 0 .6 0 1.1.1 1.6s.2.9.4 1.3a2.36 2.36 0 0 0 .8.9c.4.2.8.3 1.3.3s1.1-.2 1.7-.5 1.3-.9 2-1.6l2-8zm32.1 9.6l-.2.9c-.9.4-1.6.6-2.2.8-.5.1-1 .2-1.4.2-.8 0-1.4-.2-1.8-.6s-.6-.9-.6-1.5c0-.2 0-.5.1-.7 0-.3.1-.6.2-.9l1.5-5.5.3-1.2c.1-.3.1-.6.1-.8 0-.7-.1-1.2-.4-1.6s-.7-.6-1.3-.6c-.7 0-1.3.2-1.9.5s-1.3.9-2.1 1.7l-2.6 10.9h-2.7l2.3-9.9c0-.2.1-.4.1-.7 0-.2.1-.4.1-.5 0-.6-.2-1.1-.5-1.5s-.8-.5-1.4-.5-1.2.1-1.8.4c-.7.3-1.5.9-2.3 1.9l-2.5 10.8h-2.8l2.2-9.6c.1-.3.2-.7.2-1.1s.1-.7.1-1c0-.6-.1-.9-.3-1.1s-.6-.3-1.1-.3c-.2 0-.5 0-.8.1s-.6.1-.8.2l.2-1 2-.8c.6-.2 1.1-.3 1.5-.3.8 0 1.4.2 1.7.6s.5 1 .5 1.7h.1l2.9-2c.7-.4 1.6-.6 2.7-.6.9 0 1.6.3 2.1.8s.9 1.1.9 1.9h.1c1-.9 2-1.5 2.8-2s1.8-.7 2.9-.7c.9 0 1.7.3 2.2.8s.8 1.3.8 2.1c0 .2 0 .5-.1.9-.1.5-.1.9-.3 1.3l-1.2 4.7c-.1.3-.2.7-.3 1.1s-.1.7-.1 1c0 .6.1.9.4 1.1.2.2.6.3 1.2.3.2 0 .5 0 .8-.1.1.5.3.5.5.4zm10.5.1l-.2.9c-.9.4-1.6.6-2.2.8-.5.1-1 .2-1.4.2-.8 0-1.4-.2-1.8-.6s-.6-.9-.6-1.5c0-.2 0-.5.1-.7 0-.2.1-.6.2-.9l1.6-6.3c.1-.3.2-.7.2-1.1.1-.4.1-.7.1-1 0-.6-.1-.9-.3-1.1s-.6-.3-1.1-.3c-.2 0-.5 0-.9.1s-.6.1-.8.2l.2-.9 2.1-.8c.6-.2 1.1-.3 1.4-.3.8 0 1.4.2 1.8.6s.5.9.5 1.6c0 .2 0 .4-.1.7 0 .3-.1.6-.2.9l-1.6 6.3-.3 1.1c-.1.4-.1.7-.1.9 0 .6.1.9.4 1.2.2.2.7.3 1.2.3.2 0 .5 0 .8-.1l1-.2zm1.1-18.9c0 .6-.2 1-.5 1.5-.4.4-.8.6-1.4.6-.5 0-.9-.2-1.3-.6s-.5-.9-.5-1.4.2-1 .5-1.4c.4-.4.8-.6 1.3-.6.6 0 1 .2 1.4.6.3.4.5.8.5 1.3zm10.2-2.1l-4.1 17.8-.3 1.1c-.1.4-.1.7-.1.9 0 .6.1.9.4 1.2.3.2.7.3 1.2.3.2 0 .5 0 .9-.1.4 0 .7-.1.9-.2l-.2.9-2 .8c-.5.1-1 .2-1.6.2-.8 0-1.4-.2-1.8-.6s-.6-.9-.6-1.5c0-.2 0-.5.1-.7 0-.2.1-.6.2-.9l3.6-15.5c.1-.3.1-.5.1-.6v-.4c0-.4-.1-.6-.2-.8s-.3-.3-.5-.4-.5-.1-.8-.2c-.3 0-.6-.1-1-.1l.2-.9 5.6-.3zm11.8 20.4h0c-1 .8-1.9 1.4-2.7 1.8s-1.7.6-2.8.6c-.9 0-1.7-.3-2.2-.8-.6-.5-.8-1.3-.8-2.1 0-.2 0-.5.1-.8 0-.3.1-.8.3-1.4l1.1-4.6.3-1.2c.1-.3.1-.6.1-1 0-.6-.1-.9-.3-1.1s-.6-.3-1.1-.3c-.2 0-.5 0-.8.1s-.6.1-.8.2l.2-1 2-.8c.6-.2 1.1-.3 1.4-.3.8 0 1.4.2 1.7.5.4.4.6.9.6 1.6 0 .2 0 .4-.1.7 0 .3-.1.6-.2.9l-1.3 5.4-.3 1.2c-.1.4-.1.6-.1.8 0 .7.2 1.2.5 1.6s.8.6 1.4.6c.7 0 1.4-.2 2.1-.5.7-.4 1.3-.8 1.9-1.5l2.4-11 2.5-.2.2.2-2.5 11.5a27.18 27.18 0 0 1-1.4 4.3c-.6 1.2-1.3 2.2-2 2.9-.8.8-1.7 1.3-2.6 1.7-.9.3-2 .5-3.2.5-.8 0-1.5-.1-2-.2s-.9-.3-1.2-.5-.5-.4-.6-.7c-.1-.2-.1-.5-.1-.7 0-.4.1-.8.4-1.1s.6-.5 1.1-.5c.4 0 .7.1.9.3.3.2.5.4.6.7.2.3.3.6.5.9.1.3.3.6.4.8h.4c.6 0 1.2-.1 1.8-.4s1.2-.7 1.7-1.3c.6-.6 1.1-1.4 1.5-2.4.4-.8.7-2 1-3.4zm34.5-18.8l-.2 1c-.3 0-.6 0-1.1.1-.4.1-.8.1-1.1.2-.4.1-.7.3-.8.6-.2.3-.3.6-.4.9l-2.8 12.5c-.1.7-.4 1.4-.8 2.1s-.9 1.4-1.6 2-1.4 1.1-2.3 1.5c-.8.4-1.8.6-3 .6-1.4 0-2.5-.3-3.3-1s-1.2-1.6-1.2-2.9c0-1 .2-1.8.7-2.6s1.1-1.1 1.9-1.1c.6 0 1 .1 1.3.4s.4.6.4 1c0 .3-.1.7-.3 1.1l-.6 1.1c-.2.3-.5.6-.8 1-.3.3-.5.6-.7.8.1.3.4.6.8.8s1 .4 1.8.4c.7 0 1.3-.2 1.9-.5a4.04 4.04 0 0 0 1.3-1.3l.9-1.9c.3-.7.5-1.6.7-2.5l2.5-11.2v-.5c0-.2 0-.4-.1-.6s-.2-.3-.5-.4c-.3-.2-.6-.3-1.1-.4s-.9-.1-1.1-.2l.2-1h9.4z"/><use xlink:href="#C" x="241.1"/><path d="M351.4 161.9c0 1.5-.2 3.1-.7 4.6a13.23 13.23 0 0 1-1.8 4c-.9 1.3-1.8 2.3-2.9 3s-2.3 1-3.5 1c-.9 0-1.8-.3-2.6-.8s-1.3-1.2-1.6-2.1c-.4.3-.7.7-1 1s-.7.6-1.2.9-.9.6-1.3.7c-.4.2-.9.3-1.5.3-.7 0-1.4-.1-1.9-.3a2.73 2.73 0 0 1-1.2-.9c-.3-.4-.5-.8-.6-1.2s-.2-.9-.2-1.4c0-.2 0-.4.1-.7 0-.3.1-.5.1-.7l1.3-4.7.3-1.2c.1-.4.1-.7.1-.9 0-.6-.1-.9-.3-1.1s-.6-.3-1.1-.3c-.2 0-.5 0-.8.1s-.6.1-.8.2l.2-1 2-.8c.6-.2 1.1-.3 1.4-.3.8 0 1.4.2 1.7.6s.6.9.6 1.6c0 .2 0 .4-.1.7 0 .3-.1.6-.2.9l-1.4 5.4c-.1.4-.2.7-.2 1.1-.1.4-.1.7-.1.9 0 .7.1 1.3.4 1.7s.8.6 1.5.6c.6 0 1.3-.2 1.9-.5.7-.3 1.3-.8 1.9-1.5l2.6-11.2 2.6-.2.2.2-2.1 9c-.1.3-.1.7-.2 1.1s-.1.7-.1.8c0 .5.1 1 .3 1.3s.4.5.7.7l.8.3c.3 0 .5.1.8.1.7 0 1.4-.2 2.1-.6s1.3-1 1.8-1.7c.6-.8 1-1.6 1.4-2.5.3-.9.5-1.9.5-3 0-.6-.1-1-.2-1.4s-.3-.6-.5-.8-.4-.5-.5-.8-.2-.7-.2-1.1c0-.6.2-1 .6-1.3a1.92 1.92 0 0 1 1.2-.4c.6 0 1 .2 1.4.7s.3 1 .3 1.9z"/><use xlink:href="#C" x="283.2"/><path d="M378.5 151.5l-4.1 17.8-.3 1.1c-.1.4-.1.7-.1.9 0 .6.1.9.4 1.2.3.2.7.3 1.2.3.2 0 .5 0 .9-.1.4 0 .7-.1.9-.2l-.2.9-2 .8c-.4.2-1 .2-1.6.2-.8 0-1.4-.2-1.8-.6s-.6-.9-.6-1.5c0-.2 0-.5.1-.7 0-.2.1-.6.2-.9l3.6-15.5c.1-.3.1-.5.1-.6v-.4c0-.4-.1-.6-.2-.8s-.3-.3-.5-.4-.5-.1-.8-.2c-.3 0-.6-.1-1-.1l.2-.9 5.6-.3zm14.9 10.8a3.94 3.94 0 0 1-1 2.7c-.7.8-1.6 1.3-2.9 1.8l-2.8.8a25.15 25.15 0 0 1-3.1.5c0 1.6.3 2.7.9 3.6.6.8 1.4 1.2 2.5 1.2 1 0 1.9-.2 2.6-.7.8-.5 1.5-1.2 2.2-2.2l.8.6c-.8 1.2-1.8 2.2-2.9 2.9-1.2.7-2.4 1.1-3.7 1.1-1.7 0-3.1-.5-4-1.5s-1.4-2.4-1.4-4.1c0-1.2.2-2.4.6-3.6.4-1.1 1-2.2 1.7-3.1s1.6-1.7 2.7-2.2c1.1-.6 2.2-.8 3.5-.8 1.4 0 2.5.3 3.1.9.9.4 1.2 1.2 1.2 2.1zm-2.7-.4c0-.4-.1-.7-.2-.9s-.2-.4-.4-.5-.4-.2-.6-.2h-.6c-1.2 0-2.3.6-3.3 1.9s-1.6 2.9-1.9 4.8l2.3-.4c.9-.2 1.6-.4 2.2-.7.8-.4 1.4-1 1.8-1.6.5-.7.7-1.5.7-2.4zm18.9-.3c0 .3 0 .6-.1.9l-.3.8c-.2.3-.4.5-.6.6s-.5.2-.9.2c-.5 0-.9-.1-1.2-.4s-.4-.6-.4-.9.1-.6.2-1 .3-.8.5-1.1c-.1 0-.3 0-.6.1s-.6.2-1 .4-.8.5-1.3.8c-.5.4-1 .9-1.6 1.5l-2.4 10.6h-2.8l2.2-9.6c0-.2.1-.6.2-1.1s.1-.8.1-1c0-.6-.1-.9-.3-1.1s-.6-.3-1.1-.3c-.2 0-.5 0-.8.1s-.6.1-.8.2l.2-.9 2-.8c.6-.2 1.1-.3 1.5-.3.8 0 1.3.2 1.7.6.3.4.5 1.1.5 1.9h.1l2.7-2.1c.6-.4 1.2-.6 1.9-.6.3 0 .6 0 .9.1s.5.2.8.4c.2.2.4.4.5.7a4.44 4.44 0 0 1 .2 1.3zM386.1 57.5c0-2.1.5-4 1.6-5.9a11.11 11.11 0 0 1 4.3-4.3c1.8-1.1 3.8-1.6 5.9-1.6s4 .5 5.9 1.6a11.11 11.11 0 0 1 4.3 4.3c1.1 1.8 1.6 3.8 1.6 5.9a11.66 11.66 0 0 1-1.5 5.8c-1 1.8-2.4 3.2-4.2 4.3s-3.8 1.6-6 1.6-4.1-.5-6-1.6c-1.8-1.1-3.2-2.5-4.3-4.3s-1.6-3.7-1.6-5.8zm1.7 0c0 1.8.5 3.5 1.4 5.1s2.1 2.8 3.7 3.7 3.2 1.4 5 1.4a9.66 9.66 0 0 0 5-1.4c1.5-.9 2.8-2.1 3.7-3.7.9-1.5 1.4-3.2 1.4-5.1a9.66 9.66 0 0 0-1.4-5c-.9-1.6-2.1-2.8-3.7-3.7-1.5-.9-3.2-1.4-5.1-1.4a9.66 9.66 0 0 0-5 1.4c-1.6.9-2.8 2.1-3.7 3.7-.9 1.5-1.3 3.2-1.3 5zm14.8-2.8c0 .8-.2 1.6-.7 2.2s-1.1 1.1-1.9 1.4l3.7 6.2h-2.6l-3.2-5.5h-2.1v5.5h-2.3v-14h4.1c1.7 0 3 .3 3.8 1s1.2 1.8 1.2 3.2zm-6.8 2.3h1.7c.8 0 1.5-.2 2-.6s.8-1 .8-1.6c0-.8-.2-1.3-.7-1.7-.4-.3-1.2-.5-2.1-.5h-1.7V57z"/><defs ><path id="B" d="M164.4 132.6h-26.2V129l2.7-.2 2.4-.4c.9-.3 1.8-.9 2.3-1.7.5-1 .8-2.1.8-3.2V61.1c0-1.3-.3-2.5-.9-3.7-.5-1.1-1.3-2-2.2-2.7-1.1-.6-2.3-1-3.6-1.2l-4.2-.7v-3.5l20.2-1.2.8.8v73.8c0 1.1.2 2.2.7 3.1s1.3 1.5 2.3 1.9c.8.4 1.6.6 2.4.8.9.2 1.8.3 2.6.4l-.1 3.7z"/><path id="C" d="M84.3 162.3a3.94 3.94 0 0 1-1 2.7c-.7.7-1.6 1.3-2.9 1.8l-2.8.8a25.15 25.15 0 0 1-3.1.5c0 1.6.3 2.7.9 3.6.6.8 1.4 1.2 2.5 1.2 1 0 1.9-.2 2.6-.7.8-.5 1.5-1.2 2.2-2.2l.8.6c-.8 1.2-1.8 2.2-2.9 2.9-1.2.7-2.4 1.1-3.7 1.1-1.7 0-3.1-.5-4-1.5s-1.4-2.4-1.4-4.1c0-1.2.2-2.4.6-3.6.4-1.1 1-2.2 1.7-3.1s1.6-1.7 2.7-2.2c1.1-.6 2.2-.8 3.5-.8 1.4 0 2.5.3 3.1.9.9.4 1.2 1.2 1.2 2.1zm-2.7-.4c0-.4-.1-.7-.2-.9s-.2-.4-.4-.5-.4-.2-.6-.2h-.6c-1.2 0-2.3.6-3.3 1.9s-1.6 2.9-1.9 4.8l2.3-.4c.9-.2 1.6-.4 2.2-.7.8-.4 1.4-1 1.8-1.6.5-.7.7-1.5.7-2.4z"/></defs></svg>